<?xml version="1.0" encoding="UTF-8"?>
<svg version="1.1" xmlns="http://www.w3.org/2000/svg" width="900" height="900">
<path d="M0 0 C297 0 594 0 900 0 C900 297 900 594 900 900 C603 900 306 900 0 900 C0 603 0 306 0 0 Z " fill="#FEFEFE" transform="translate(0,0)"/>
<path d="M0 0 C1.15363037 0.00757324 2.30726074 0.01514648 3.49584961 0.02294922 C17.55386065 0.29526417 28.93614706 3.65001602 38.9375 14 C54.63298372 33.1550451 53.97141771 62.33063127 51.96582031 85.75683594 C50.2859361 99.81291807 46.58459747 115.83278415 35.25 125.4375 C29.0489335 129.96697466 22.70345883 132.6962718 15.25 134.4375 C14.50363281 134.62183594 13.75726562 134.80617188 12.98828125 134.99609375 C-0.97614956 137.24713609 -16.60927842 136.04154634 -28.546875 128.0703125 C-29.27390625 127.53148437 -30.0009375 126.99265625 -30.75 126.4375 C-31.37390625 125.98117187 -31.9978125 125.52484375 -32.640625 125.0546875 C-36.86849296 121.4171975 -39.42839455 116.87084004 -42 112 C-42.3295166 111.39881348 -42.6590332 110.79762695 -42.99853516 110.17822266 C-49.10350334 97.87148117 -49.26393029 83.5706978 -49.19604492 70.12939453 C-49.1875287 67.57112087 -49.21644477 65.01508702 -49.24804688 62.45703125 C-49.3254424 44.30772507 -46.7205658 24.95036817 -33.7265625 11.18359375 C-23.75127657 2.37143404 -12.99040905 -0.1184793 0 0 Z " fill="#211E1D" transform="translate(597.75,517.5625)"/>
<path d="M0 0 C14.52 0 29.04 0 44 0 C44 67.98 44 135.96 44 206 C29.48 206 14.96 206 0 206 C0 138.02 0 70.04 0 0 Z " fill="#221F20" transform="translate(401,181)"/>
<path d="M0 0 C14.52 0 29.04 0 44 0 C44 67.98 44 135.96 44 206 C29.48 206 14.96 206 0 206 C0 138.02 0 70.04 0 0 Z " fill="#221E1F" transform="translate(254,181)"/>
<path d="M0 0 C68.40824468 0 68.40824468 0 78.609375 10.09375 C87.422722 22.17496723 88.41780798 35.12613368 86.5390625 49.53515625 C84.72927988 57.78563585 81.24220865 64.79639927 74.4375 70 C71.34284144 71.80052862 69.43702339 72.43597565 66 73 C67.49812083 76.14673119 68.99874023 79.29226521 70.5 82.4375 C70.97542236 83.43418701 71.45084473 84.43087402 71.94067383 85.45776367 C75.03007397 91.92069714 78.14930422 98.36801683 81.29296875 104.8046875 C82.02738031 106.31061043 82.76175535 107.81655116 83.49609375 109.32250977 C84.59107294 111.56780796 85.68743882 113.81237534 86.78808594 116.05490112 C87.82438894 118.16645642 88.85596671 120.28026205 89.88671875 122.39453125 C90.20182907 123.0331308 90.51693939 123.67173035 90.84159851 124.3296814 C93 128.77270267 93 128.77270267 93 131 C85.41 131 77.82 131 70 131 C63.90597548 119.08279649 63.90597548 119.08279649 61.75390625 113.0078125 C60.89535793 110.72131595 59.90010696 108.52951098 58.875 106.3125 C54.71371608 97.29851883 50.89640722 88.13038707 47 79 C33.14 78.505 33.14 78.505 19 78 C19 95.49 19 112.98 19 131 C12.73 131 6.46 131 0 131 C0 87.77 0 44.54 0 0 Z " fill="#1F1C1B" transform="translate(442,520)"/>
<path d="M0 0 C65.22574627 0 65.22574627 0 78.109375 11.89453125 C85.87042632 20.53752022 88.54368134 31.36048477 88.1796875 42.765625 C87.27841144 53.9727969 83.36228625 64.91280277 74.84375 72.609375 C62.480209 81.93441863 47.82342893 82.15614085 33 82.0625 C26.07 82.0315625 26.07 82.0315625 19 82 C19 98.17 19 114.34 19 131 C12.73 131 6.46 131 0 131 C0 87.77 0 44.54 0 0 Z " fill="#201D1C" transform="translate(340,520)"/>
<path d="M0 0 C14.85 0 29.7 0 45 0 C45 43.89 45 87.78 45 133 C30.15 133 15.3 133 0 133 C0 89.11 0 45.22 0 0 Z " fill="#A32138" transform="translate(474,254)"/>
<path d="M0 0 C14.52 0 29.04 0 44 0 C44 43.89 44 87.78 44 133 C29.48 133 14.96 133 0 133 C0 89.11 0 45.22 0 0 Z " fill="#221E1F" transform="translate(548,254)"/>
<path d="M0 0 C14.52 0 29.04 0 44 0 C44 43.56 44 87.12 44 132 C29.48 132 14.96 132 0 132 C0 88.44 0 44.88 0 0 Z " fill="#221F20" transform="translate(327,181)"/>
<path d="M0 0 C8.06081906 6.12345482 12.25506603 14.47367379 13.8203125 24.3828125 C13.98810421 27.62449965 14.00814781 30.86379337 14.0234375 34.109375 C14.02913757 35.05283783 14.03483765 35.99630066 14.04071045 36.96835327 C14.05014088 38.96375413 14.05668664 40.95917043 14.06054688 42.95458984 C14.07021242 45.97652124 14.10123808 48.99776042 14.1328125 52.01953125 C14.20884276 65.68791752 13.82894422 78.27734408 4.8203125 89.3828125 C-3.79569981 96.74232302 -12.2978976 97.05220929 -23.21875 96.56640625 C-30.60514023 95.87485179 -35.17670788 90.84778898 -39.8046875 85.5078125 C-46.93043507 74.49529354 -46.55269457 61.358769 -46.55029297 48.71435547 C-46.55465597 46.15133647 -46.59105299 43.59005869 -46.62890625 41.02734375 C-46.71360487 28.67713847 -46.30143805 14.81558719 -37.82421875 4.96484375 C-28.56941331 -3.93823512 -11.59326321 -6.50132015 0 0 Z " fill="#FCFCFC" transform="translate(615.1796875,538.6171875)"/>
<path d="M0 0 C33.99 0 67.98 0 103 0 C103 14.52 103 29.04 103 44 C69.01 44 35.02 44 0 44 C0 29.48 0 14.96 0 0 Z " fill="#221F20" transform="translate(548,181)"/>
<path d="M0 0 C19.43810036 -1.77795085 19.43810036 -1.77795085 24.66796875 1.8515625 C26.47683218 4.8082726 27.69824778 7.78597026 29 11 C30.72934488 14.11295963 32.58950607 17.14391386 34.4375 20.1875 C35.31438815 21.67911871 36.18834727 23.17246541 37.05859375 24.66796875 C37.69925781 25.76753906 38.33992188 26.86710938 39 28 C41.79145467 25.50382577 43.46278635 22.72840847 45.3203125 19.4921875 C46.24650391 17.88923828 46.24650391 17.88923828 47.19140625 16.25390625 C47.82949219 15.13886719 48.46757812 14.02382813 49.125 12.875 C50.39715717 10.66332556 51.67052793 8.45234858 52.9453125 6.2421875 C53.50750488 5.2610498 54.06969727 4.27991211 54.64892578 3.26904297 C56 1 56 1 57 0 C58.63472882 -0.08700342 60.27314055 -0.10701063 61.91015625 -0.09765625 C62.89951172 -0.09443359 63.88886719 -0.09121094 64.90820312 -0.08789062 C65.94912109 -0.07951172 66.99003906 -0.07113281 68.0625 -0.0625 C69.62967773 -0.05573242 69.62967773 -0.05573242 71.22851562 -0.04882812 C73.8190666 -0.03699913 76.40950559 -0.02051689 79 0 C75.27942514 6.63501231 71.36887838 13.05492487 67.08984375 19.33984375 C66.66957916 19.96122223 66.24931458 20.58260071 65.8163147 21.22280884 C64.08177123 23.78631928 62.34605631 26.34832809 60.58227539 28.8918457 C59.2761841 30.78026466 57.99392795 32.68306623 56.71484375 34.58984375 C56.31087875 35.16073227 55.90691376 35.73162079 55.4907074 36.31980896 C53.79606822 38.88337773 52.87555834 40.34718912 53.46362305 43.43212891 C55.51029218 46.85289259 57.63277757 50.19480008 59.8671875 53.49609375 C60.3431839 54.20725845 60.8191803 54.91842316 61.30960083 55.65113831 C62.82707297 57.91619754 64.35090388 60.17689395 65.875 62.4375 C66.89235371 63.95348983 67.90928518 65.4697631 68.92578125 66.98632812 C70.80060938 69.78228546 72.67789004 72.57655937 74.55810547 75.36889648 C74.96865173 75.98135223 75.379198 76.59380798 75.80218506 77.224823 C76.59596843 78.40122006 77.39787107 79.57218214 78.20806885 80.73733521 C81 84.78816988 81 84.78816988 81 87 C62.55772608 89.51639529 62.55772608 89.51639529 57.12158203 85.67138672 C53.92511278 82.01693463 51.98758094 77.69768848 50.05322266 73.28076172 C48.30723138 69.49980424 46.07275945 66.03056654 43.875 62.5 C43.11939336 61.24138099 42.36648762 59.98113367 41.6171875 58.71875 C41.08351563 57.8215625 40.54984375 56.924375 40 56 C37.30469554 59.25252611 34.98947667 62.50752698 32.87109375 66.16015625 C32.03094727 67.5977832 32.03094727 67.5977832 31.17382812 69.06445312 C30.60083984 70.05380859 30.02785156 71.04316406 29.4375 72.0625 C28.29256643 74.03383254 27.14550951 76.00393375 25.99609375 77.97265625 C25.24090454 79.27601929 25.24090454 79.27601929 24.47045898 80.60571289 C23.98520752 81.39582764 23.49995605 82.18594238 23 83 C22.54850586 83.75563232 22.09701172 84.51126465 21.63183594 85.28979492 C20 87 20 87 17.63989258 87.45410156 C16.73392334 87.4331543 15.8279541 87.41220703 14.89453125 87.390625 C13.42016602 87.37128906 13.42016602 87.37128906 11.91601562 87.3515625 C10.89185547 87.31804687 9.86769531 87.28453125 8.8125 87.25 C7.77673828 87.23195313 6.74097656 87.21390625 5.67382812 87.1953125 C3.11495716 87.14814437 0.55794158 87.08234057 -2 87 C-0.31615931 81.77826076 2.85222296 77.61309848 5.953125 73.15625 C7.14143954 71.41852548 8.32891469 69.68022671 9.515625 67.94140625 C11.3861651 65.21000378 13.26193919 62.48283588 15.15234375 59.76513672 C16.9776974 57.13573566 18.77948992 54.49147285 20.578125 51.84375 C21.15089172 51.03216431 21.72365845 50.22057861 22.31378174 49.38439941 C25.40269555 45.13589468 25.40269555 45.13589468 25.46142578 40.15698242 C24.97915527 39.44517822 24.49688477 38.73337402 24 38 C23.35289062 36.89269531 22.70578125 35.78539062 22.0390625 34.64453125 C21.23923662 33.36413772 20.43424278 32.08696269 19.625 30.8125 C19.19380859 30.12704102 18.76261719 29.44158203 18.31835938 28.73535156 C14.30464508 22.39505323 10.14367814 16.15361403 5.93603516 9.94067383 C5.209729 8.86402466 5.209729 8.86402466 4.46875 7.765625 C4.04013672 7.13430664 3.61152344 6.50298828 3.16992188 5.85253906 C1.97196151 3.95560183 0.9690733 2.02207327 0 0 Z " fill="#1F1C1C" transform="translate(245,564)"/>
<path d="M0 0 C177.87 0 355.74 0 539 0 C539 1.32 539 2.64 539 4 C361.13 4 183.26 4 0 4 C0 2.68 0 1.36 0 0 Z " fill="#120F10" transform="translate(181,432)"/>
<path d="M0 0 C5.28 -0.103125 10.56 -0.20625 16 -0.3125 C17.65 -0.35802002 19.3 -0.40354004 21 -0.45043945 C28.64961926 -0.57334941 35.15823171 -0.59964915 41 5 C46.70417853 11.00439845 47.45339871 16.91715991 47.43164062 24.8996582 C47.25884624 30.99414414 46.16080342 35.47999053 42 40 C35.91448469 44.97686698 30.8308214 46.13063907 23.046875 46.09765625 C21.83870117 46.09515869 20.63052734 46.09266113 19.38574219 46.09008789 C17.85594727 46.08098389 16.32615234 46.07187988 14.75 46.0625 C9.8825 46.041875 5.015 46.02125 0 46 C0 30.82 0 15.64 0 0 Z " fill="#FAFAFA" transform="translate(359,538)"/>
<path d="M0 0 C14.52 0 29.04 0 44 0 C44 14.52 44 29.04 44 44 C29.48 44 14.96 44 0 44 C0 29.48 0 14.96 0 0 Z " fill="#221F20" transform="translate(474,181)"/>
<path d="M0 0 C5.445 -0.0825 10.89 -0.165 16.5 -0.25 C18.20220703 -0.28641602 19.90441406 -0.32283203 21.65820312 -0.36035156 C35.62330661 -0.53616631 35.62330661 -0.53616631 42 4 C47.87707457 11.38401676 47.67709035 18.97212865 47 28 C45.52872379 33.37335658 42.80771983 37.09300662 38 40 C33.03774303 41.68852212 28.76395937 42.23870506 23.53515625 42.1953125 C22.29386963 42.19031738 21.05258301 42.18532227 19.77368164 42.18017578 C18.2189917 42.16196777 16.66430176 42.14375977 15.0625 42.125 C10.091875 42.08375 5.12125 42.0425 0 42 C0 28.14 0 14.28 0 0 Z " fill="#FAF9FA" transform="translate(461,538)"/>
<path d="M0 0 C14.52 0 29.04 0 44 0 C44 43.89 44 87.78 44 133 C29.48 133 14.96 133 0 133 C0 89.11 0 45.22 0 0 Z M1 2 C1 44.57 1 87.14 1 131 C14.53 131 28.06 131 42 131 C42 88.43 42 45.86 42 2 C28.47 2 14.94 2 1 2 Z " fill="#282627" transform="translate(548,254)"/>
</svg>
